<svg width="21" height="21" viewBox="0 0 21 21" fill="none" xmlns="http://www.w3.org/2000/svg">
<path fill-rule="evenodd" clip-rule="evenodd" d="M5.84952 0.721297C6.99917 0.245097 8.23136 0 9.47573 0C10.7201 0 11.9523 0.245097 13.1019 0.721297C14.2516 1.1975 15.2962 1.89547 16.1761 2.77538C17.056 3.65528 17.754 4.69987 18.2302 5.84952C18.7064 6.99917 18.9515 8.23136 18.9515 9.47573C18.9515 10.7201 18.7064 11.9523 18.2302 13.1019C17.9182 13.855 17.5111 14.563 17.0201 15.2092L20.625 18.8141C21.125 19.3141 21.125 20.1249 20.625 20.625C20.1249 21.125 19.3141 21.125 18.8141 20.625L15.2092 17.0201C13.5698 18.266 11.5581 18.9515 9.47573 18.9515C6.96261 18.9515 4.55242 17.9531 2.77538 16.1761C0.998332 14.399 0 11.9888 0 9.47573C0 6.96261 0.998332 4.55242 2.77538 2.77538C3.65528 1.89547 4.69987 1.1975 5.84952 0.721297ZM9.47573 2.56095C8.56766 2.56095 7.66849 2.73981 6.82956 3.08731C5.99062 3.43481 5.22834 3.94414 4.58624 4.58624C3.28947 5.88301 2.56095 7.64181 2.56095 9.47573C2.56095 11.3096 3.28947 13.0684 4.58624 14.3652C5.88301 15.662 7.64181 16.3905 9.47573 16.3905C11.3096 16.3905 13.0684 15.662 14.3652 14.3652C15.0073 13.7231 15.5166 12.9608 15.8641 12.1219C16.2116 11.283 16.3905 10.3838 16.3905 9.47573C16.3905 8.56766 16.2116 7.66849 15.8641 6.82956C15.5166 5.99062 15.0073 5.22834 14.3652 4.58624C13.7231 3.94414 12.9608 3.43481 12.1219 3.08731C11.283 2.73981 10.3838 2.56095 9.47573 2.56095Z" fill="#A07142"/>
</svg>
