<svg width="22" height="21" viewBox="0 0 22 21" fill="none" xmlns="http://www.w3.org/2000/svg">
<path d="M21.8554 19.1519C20.4589 16.7267 18.2782 14.8371 15.6645 13.7872C16.9643 12.8226 17.9244 11.4779 18.4088 9.94338C18.8933 8.4089 18.8775 6.7625 18.3637 5.23739C17.8499 3.71228 16.8642 2.38578 15.5462 1.4458C14.2281 0.505817 12.6446 0 11.0199 0C9.39513 0 7.81159 0.505817 6.49355 1.4458C5.17551 2.38578 4.18978 3.71228 3.676 5.23739C3.16222 6.7625 3.14643 8.4089 3.63087 9.94338C4.11531 11.4779 5.07541 12.8226 6.37519 13.7872C3.76147 14.8371 1.58085 16.7267 0.18435 19.1519C0.0978177 19.2896 0.0401444 19.4431 0.0147587 19.6032C-0.0106271 19.7634 -0.00320716 19.927 0.0365774 20.0842C0.076362 20.2415 0.147699 20.3893 0.246347 20.5187C0.344996 20.6482 0.468942 20.7567 0.610817 20.8378C0.752692 20.9189 0.9096 20.9709 1.07221 20.9909C1.23482 21.0108 1.39982 20.9981 1.5574 20.9537C1.71497 20.9092 1.8619 20.8339 1.98946 20.7321C2.11701 20.6303 2.22259 20.5042 2.29991 20.3613C4.14555 17.2048 7.40496 15.3221 11.0199 15.3221C14.6347 15.3221 17.8941 17.2058 19.7398 20.3613C19.9074 20.6279 20.1731 20.8196 20.4809 20.8958C20.7887 20.972 21.1144 20.9269 21.3892 20.7698C21.6639 20.6127 21.8662 20.3561 21.9532 20.0542C22.0402 19.7523 22.0051 19.4287 21.8554 19.1519ZM5.72331 7.66257C5.72331 6.62605 6.03395 5.61281 6.61594 4.75097C7.19793 3.88914 8.02514 3.21742 8.99295 2.82076C9.96077 2.4241 11.0257 2.32031 12.0532 2.52253C13.0806 2.72474 14.0243 3.22388 14.7651 3.95681C15.5058 4.68974 16.0103 5.62355 16.2146 6.64015C16.419 7.65676 16.3141 8.7105 15.9132 9.66812C15.5123 10.6257 14.8335 11.4442 13.9625 12.0201C13.0914 12.596 12.0674 12.9033 11.0199 12.9033C9.61562 12.9017 8.26936 12.3491 7.27642 11.3666C6.28347 10.3841 5.72493 9.05201 5.72331 7.66257Z" fill="#420000"/>
</svg>
