<svg width="19" height="21" viewBox="0 0 19 21" fill="none" xmlns="http://www.w3.org/2000/svg">
<path fill-rule="evenodd" clip-rule="evenodd" d="M12.5587 6.3V5.25C12.5587 3.5103 11.1893 2.1 9.5 2.1C7.8107 2.1 6.44126 3.5103 6.44126 5.25V6.3H12.5587ZM4.4021 6.3H4.22243C1.63595 6.3 -0.342366 8.59306 0.0496765 11.1366L1.0207 17.4366C1.33665 19.4864 3.10905 21 5.19346 21H13.8065C15.8909 21 17.6634 19.4864 17.9793 17.4366L18.9503 11.1366C19.3424 8.59305 17.364 6.3 14.7776 6.3H14.5979V5.25C14.5979 2.35051 12.3155 0 9.5 0C6.68451 0 4.4021 2.35051 4.4021 5.25V6.3ZM7.38923 11.025C7.38923 11.8948 6.68046 12.6 5.80615 12.6C4.93185 12.6 4.22308 11.8948 4.22308 11.025C4.22308 10.1552 4.93185 9.45 5.80615 9.45C6.68046 9.45 7.38923 10.1552 7.38923 11.025ZM13.1938 12.6C14.0681 12.6 14.7769 11.8948 14.7769 11.025C14.7769 10.1552 14.0681 9.45 13.1938 9.45C12.3195 9.45 11.6108 10.1552 11.6108 11.025C11.6108 11.8948 12.3195 12.6 13.1938 12.6Z" fill="#55AB5E"/>
</svg>
