<svg width="34" height="34" viewBox="0 0 34 34" fill="none" xmlns="http://www.w3.org/2000/svg">
<circle cx="17" cy="17" r="17" fill="#E5C788"/>
<path d="M20.7766 13.2763C21.301 13.2763 21.7262 12.8511 21.7262 12.3266C21.7262 11.8021 21.301 11.377 20.7766 11.377C20.2521 11.377 19.8269 11.8021 19.8269 12.3266C19.8269 12.8511 20.2521 13.2763 20.7766 13.2763Z" fill="#420000"/>
<path d="M16.5518 12.4883C15.748 12.4883 14.9624 12.7266 14.2941 13.1731C13.6258 13.6197 13.1049 14.2543 12.7974 14.9969C12.4898 15.7394 12.4093 16.5565 12.5661 17.3448C12.7229 18.1331 13.11 18.8572 13.6783 19.4255C14.2466 19.9938 14.9707 20.3809 15.759 20.5377C16.5473 20.6945 17.3643 20.614 18.1069 20.3064C18.8494 19.9988 19.4841 19.478 19.9306 18.8097C20.3772 18.1414 20.6155 17.3557 20.6155 16.552C20.6155 15.4742 20.1874 14.4406 19.4253 13.6785C18.6632 12.9164 17.6295 12.4883 16.5518 12.4883ZM16.5518 19.1899C16.03 19.1899 15.52 19.0352 15.0862 18.7454C14.6524 18.4555 14.3143 18.0435 14.1146 17.5615C13.915 17.0795 13.8627 16.5491 13.9645 16.0374C14.0663 15.5257 14.3176 15.0556 14.6865 14.6867C15.0554 14.3178 15.5254 14.0666 16.0371 13.9648C16.5488 13.863 17.0792 13.9152 17.5613 14.1149C18.0433 14.3145 18.4553 14.6527 18.7451 15.0865C19.035 15.5203 19.1897 16.0303 19.1897 16.552C19.1897 17.2516 18.9118 17.9226 18.4171 18.4173C17.9224 18.912 17.2514 19.1899 16.5518 19.1899Z" fill="#420000"/>
<path d="M16.5517 10.0635C18.6647 10.0635 18.9153 10.0714 19.7496 10.1097C20.2513 10.1156 20.7483 10.2077 21.2189 10.382C21.5603 10.5137 21.8703 10.7154 22.1291 10.9742C22.3878 11.2329 22.5895 11.5429 22.7212 11.8843C22.8955 12.3549 22.9876 12.8519 22.9936 13.3537C23.0318 14.1879 23.0397 14.4385 23.0397 16.5521C23.0397 18.6658 23.0318 18.9151 22.9936 19.7493C22.9876 20.2511 22.8955 20.7481 22.7212 21.2186C22.5895 21.56 22.3878 21.8701 22.1291 22.1288C21.8703 22.3876 21.5603 22.5893 21.2189 22.721C20.7483 22.8952 20.2513 22.9874 19.7496 22.9933C18.9153 23.0316 18.6647 23.0395 16.5517 23.0395C14.4387 23.0395 14.1881 23.0316 13.3539 22.9933C12.8521 22.9874 12.3551 22.8952 11.8846 22.721C11.5432 22.5893 11.2331 22.3876 10.9744 22.1288C10.7157 21.8701 10.514 21.56 10.3823 21.2186C10.208 20.7481 10.1159 20.2511 10.1099 19.7493C10.0717 18.9151 10.0637 18.6645 10.0637 16.5515C10.0637 14.4385 10.0717 14.1879 10.1099 13.3537C10.1159 12.8519 10.208 12.3549 10.3823 11.8843C10.514 11.5429 10.7157 11.2329 10.9744 10.9742C11.2331 10.7154 11.5432 10.5137 11.8846 10.382C12.3551 10.2077 12.8521 10.1156 13.3539 10.1097C14.1881 10.0714 14.4387 10.0635 16.5517 10.0635ZM16.5517 8.6377C14.4025 8.6377 14.1328 8.64693 13.2886 8.68518C12.6323 8.69843 11.9829 8.82286 11.3682 9.05317C10.8424 9.25649 10.3649 9.56742 9.96628 9.96604C9.56766 10.3647 9.25673 10.8422 9.05341 11.368C8.82303 11.9829 8.6986 12.6325 8.68542 13.289C8.64717 14.1332 8.63794 14.4016 8.63794 16.5515C8.63794 18.7014 8.64717 18.9705 8.68542 19.8146C8.69868 20.4709 8.8231 21.1203 9.05341 21.735C9.25673 22.2608 9.56766 22.7383 9.96628 23.1369C10.3649 23.5356 10.8424 23.8465 11.3682 24.0498C11.9831 24.2802 12.6327 24.4046 13.2893 24.4178C14.1334 24.456 14.4025 24.4653 16.5517 24.4653C18.701 24.4653 18.9707 24.456 19.8149 24.4178C20.4714 24.4046 21.121 24.2802 21.7359 24.0498C22.2617 23.8465 22.7392 23.5356 23.1378 23.1369C23.5365 22.7383 23.8474 22.2608 24.0507 21.735C24.2809 21.12 24.4051 20.4705 24.418 19.814C24.4563 18.9698 24.4655 18.7014 24.4655 16.5515C24.4655 14.4016 24.4563 14.1325 24.418 13.2884C24.4048 12.632 24.2804 11.9827 24.0501 11.368C23.8467 10.8422 23.5358 10.3647 23.1372 9.96604C22.7386 9.56742 22.2611 9.25649 21.7353 9.05317C21.1203 8.82301 20.4707 8.69881 19.8142 8.68584C18.9701 8.64627 18.7016 8.6377 16.5517 8.6377Z" fill="#420000"/>
</svg>
