<svg width="58" height="95" viewBox="0 0 58 95" fill="none" xmlns="http://www.w3.org/2000/svg">
<g clip-path="url(#clip0_102_653)">
<path d="M2.30339 4.48433H2.71875C3.625 4.48433 4.22917 4.37128 4.53125 4.18286C4.83333 3.99445 4.98438 3.61761 4.98438 3.12773C4.98438 2.60016 4.83333 2.18564 4.49349 1.99722C4.15365 1.77112 3.54948 1.65807 2.68099 1.65807H2.30339V4.48433ZM9.4401 20.839C9.40234 20.7636 9.40234 20.5375 9.32682 20.1607C9.28906 19.8592 9.2513 19.5954 9.21354 19.407C9.17578 19.6331 9.10026 19.8969 9.02474 20.123C8.94922 20.3491 8.83594 20.6129 8.72266 20.839L6.00391 26.4161L3.36068 20.7259C3.2474 20.4998 3.13411 20.2737 3.05859 20.0476C2.98307 19.8215 2.90755 19.6331 2.83203 19.407C2.83203 19.6331 2.79427 19.8592 2.79427 20.0853C2.75651 20.3114 2.71875 20.5752 2.64323 20.839L1.54818 25.9639H0L2.45443 15.0734L5.51302 21.668C5.55078 21.781 5.6263 21.9318 5.73958 22.1956C5.85286 22.4593 5.92839 22.7231 6.07943 23.1C6.19271 22.7985 6.34375 22.4217 6.53255 21.9695C6.57031 21.8564 6.64583 21.7434 6.64583 21.668L9.62891 15.0734L12.1211 25.9639H10.5729L9.4401 20.839ZM15.0664 21.8564H17.974L16.9167 19.4823C16.8411 19.3316 16.8034 19.1432 16.7279 18.9548C16.6523 18.7664 16.6146 18.5403 16.5391 18.3142C16.5013 18.5403 16.4258 18.7664 16.3503 18.9548C16.2747 19.1432 16.237 19.3316 16.1615 19.52L15.0664 21.8564ZM19.7487 25.9639L18.5781 23.2884H14.4622L13.2539 25.9639H11.4792L16.5013 15.1111L21.5234 25.9639H19.7487ZM23.5625 24.4566H24.9596C25.7526 24.4566 26.319 24.4189 26.6966 24.3058C27.0742 24.1928 27.4141 24.042 27.7161 23.7783C28.0938 23.4391 28.3958 23.0246 28.5846 22.5347C28.7734 22.0448 28.8867 21.4419 28.8867 20.8013C28.8867 20.1607 28.7734 19.5577 28.5846 19.0678C28.3958 18.5779 28.0938 18.1257 27.7161 17.8243C27.4141 17.5605 27.0742 17.4098 26.6589 17.2967C26.2435 17.1837 25.6016 17.146 24.7331 17.146H24.1667H23.5625V24.4566ZM21.901 25.9639V15.5256H24.1667C25.6393 15.5256 26.6966 15.601 27.3008 15.7517C27.9049 15.9024 28.4336 16.1662 28.8867 16.5054C29.4909 16.9576 29.944 17.5605 30.2461 18.2765C30.5482 18.9925 30.6992 19.8215 30.6992 20.7636C30.6992 21.668 30.5482 22.497 30.2461 23.213C29.944 23.929 29.4909 24.5319 28.8867 24.9841C28.4336 25.3233 27.9049 25.5871 27.3385 25.7378C26.7721 25.8885 25.8659 25.9639 24.6576 25.9639H24.2044H21.901ZM32.0208 25.9639V15.5256H37.7982V16.9576H33.6823V19.5954H37.7982V21.1027H33.6823V24.4942H37.7982V26.0016H32.0208V25.9639ZM43.5 25.9639V15.5256H45.1992V25.9639H43.5ZM47.0117 25.9639V15.1111L53.582 21.4796C53.7708 21.668 53.9219 21.8564 54.1107 22.0448C54.2995 22.2332 54.4883 22.4593 54.6771 22.7231V15.5256H56.2253V26.3784L49.5417 19.8592C49.3529 19.6708 49.2018 19.52 49.013 19.2939C48.8242 19.1055 48.6732 18.8794 48.5221 18.691V25.9639H47.0117ZM2.1901 5.84094V10.4383H0.641927V0.226101H3.13411C3.88932 0.226101 4.41797 0.263784 4.75781 0.339151C5.09766 0.414518 5.39974 0.565252 5.66406 0.753669C6.00391 0.97977 6.23047 1.31892 6.41927 1.69576C6.60807 2.07259 6.68359 2.52479 6.68359 3.01468C6.68359 3.50456 6.60807 3.95676 6.41927 4.37128C6.23047 4.7858 6.00391 5.08727 5.66406 5.31337C5.39974 5.50178 5.09766 5.65252 4.75781 5.72789C4.41797 5.80325 3.85156 5.84094 3.13411 5.84094H2.83203H2.1901ZM9.10026 4.59738H9.40234C10.2708 4.59738 10.875 4.48433 11.1393 4.29591C11.4414 4.1075 11.5547 3.73066 11.5547 3.20309C11.5547 2.63784 11.4036 2.26101 11.1016 2.03491C10.7995 1.80881 10.2331 1.69576 9.40234 1.69576H9.10026V4.59738ZM9.02474 5.87862V10.4383H7.47656V0.226101H9.77995C10.4219 0.226101 10.9505 0.263784 11.3281 0.376835C11.7057 0.452201 12.0078 0.602935 12.2721 0.791353C12.612 1.05514 12.8385 1.3566 12.9896 1.73344C13.1784 2.11027 13.2539 2.56247 13.2539 3.01468C13.2539 3.84371 13.0651 4.48433 12.6497 4.93653C12.2721 5.38873 11.668 5.6902 10.9128 5.76557L14.3867 10.4006H12.5365L9.17578 5.84094H9.02474V5.87862ZM23.3359 5.35105C23.3359 4.82348 23.2227 4.3336 23.0716 3.8814C22.8828 3.42919 22.6185 3.01468 22.2786 2.63784C21.9388 2.29869 21.5234 1.99722 21.1081 1.80881C20.6927 1.62039 20.1263 1.54502 19.6354 1.54502C19.1445 1.54502 18.6536 1.65807 18.2005 1.80881C17.7852 1.99722 17.3698 2.29869 17.0299 2.63784C16.6901 3.01468 16.4258 3.42919 16.237 3.8814C16.0482 4.3336 15.9727 4.82348 15.9727 5.35105C15.9727 5.87862 16.0482 6.3685 16.237 6.82071C16.4258 7.27291 16.6901 7.68743 17.0299 8.06426C17.3698 8.44109 17.7852 8.70488 18.2383 8.8933C18.6914 9.08171 19.1445 9.19476 19.6732 9.19476C20.1641 9.19476 20.6549 9.08171 21.0703 8.8933C21.5234 8.70488 21.901 8.44109 22.2786 8.06426C22.6185 7.68743 22.8828 7.27291 23.0716 6.82071C23.2604 6.3685 23.3359 5.87862 23.3359 5.35105ZM25.0729 5.35105C25.0729 6.06704 24.9219 6.78302 24.6576 7.42364C24.3932 8.06426 23.9779 8.62951 23.487 9.15708C22.9583 9.64697 22.3919 10.0615 21.7122 10.3253C21.0703 10.5891 20.3906 10.7398 19.6732 10.7398C18.9557 10.7398 18.2383 10.5891 17.5964 10.3253C16.9167 10.0615 16.3503 9.68465 15.8594 9.15708C15.3307 8.6672 14.9531 8.06426 14.6888 7.42364C14.4245 6.78302 14.3112 6.10472 14.3112 5.35105C14.3112 4.59738 14.4245 3.91908 14.6888 3.27846C14.9531 2.63784 15.3685 2.07259 15.8594 1.54502C16.388 1.05514 16.9544 0.640619 17.5964 0.376835C18.2005 0.11305 18.918 0 19.6354 0C20.3529 0 21.0326 0.11305 21.7122 0.414518C22.3542 0.678302 22.9583 1.05514 23.4492 1.58271C23.9779 2.11027 24.3555 2.67553 24.6198 3.31614C24.9219 3.95676 25.0729 4.63507 25.0729 5.35105ZM26.168 0.226101H27.7917V6.44387C27.7917 7.38596 27.9805 8.06426 28.4336 8.51646C28.849 8.96866 29.4909 9.19476 30.3216 9.19476C31.1523 9.19476 31.7943 8.96866 32.2096 8.51646C32.625 8.06426 32.8516 7.34827 32.8516 6.44387V0.226101H34.513V6.5946C34.513 7.98889 34.1732 9.00635 33.4935 9.68465C32.8138 10.363 31.7565 10.7021 30.3594 10.7021C28.9622 10.7021 27.9049 10.363 27.2253 9.68465C26.5456 9.00635 26.2057 7.95121 26.2057 6.5946V0.226101H26.168ZM37.6849 8.93098H39.082C39.8372 8.93098 40.4036 8.8933 40.7812 8.78024C41.1589 8.6672 41.4987 8.51646 41.763 8.25268C42.1406 7.91353 42.4427 7.53669 42.6315 7.00912C42.8203 6.51924 42.9336 5.95399 42.9336 5.27568C42.9336 4.63507 42.8203 4.06981 42.6315 3.54224C42.4427 3.05236 42.1406 2.63784 41.763 2.29869C41.4609 2.07259 41.1211 1.88417 40.7435 1.77112C40.3659 1.65807 39.724 1.62039 38.8555 1.62039H38.2513H37.6471V8.93098H37.6849ZM36.0234 10.4383V0.226101H38.2513C39.6862 0.226101 40.7057 0.301468 41.3099 0.452202C41.9141 0.602935 42.4049 0.829036 42.8581 1.16819C43.4622 1.62039 43.8776 2.18564 44.1797 2.90163C44.4818 3.61761 44.6328 4.40896 44.6328 5.31337C44.6328 6.21777 44.4818 7.00912 44.1797 7.72511C43.8776 8.44109 43.4245 9.00635 42.8581 9.45855C42.4049 9.7977 41.9141 10.0238 41.3477 10.1745C40.7812 10.3253 39.9128 10.4006 38.7044 10.4006H38.2513H36.0234V10.4383ZM45.8034 10.4383V0.226101H47.4271V8.96866H51.1276V10.4383H45.8034ZM52.9023 10.4383V5.76557L49.4661 0.226101H51.2031L53.3177 3.69298C53.3555 3.76835 53.431 3.8814 53.5065 4.03213C53.582 4.18286 53.6576 4.3336 53.7331 4.48433C53.8086 4.3336 53.8841 4.18286 53.9219 4.03213C53.9974 3.8814 54.0729 3.76835 54.1484 3.61761L56.3385 0.188417H58L54.526 5.72789V10.4006H52.9023V10.4383Z" fill="white"/>
<path d="M36.7031 88.1416C36.7031 89.3852 36.4388 90.5157 35.8724 91.5708C35.3437 92.5883 34.513 93.455 33.4179 94.0579C32.3606 94.6985 31.039 95 29.4908 95C27.9804 95 26.6211 94.6985 25.4127 94.1333C24.2044 93.568 23.2604 92.7013 22.5429 91.6085C21.8255 90.5157 21.108 88.1416 21.0325 86.672H25.375C25.526 87.8778 26.0546 89.649 26.6588 90.2896C27.263 90.9302 28.358 91.2693 29.3398 91.2693C30.246 91.2317 31.1523 91.0056 31.7187 90.478C32.2474 89.9881 32.7005 89.1967 32.7005 88.3677C32.7005 87.614 32.4362 86.8604 31.8697 86.3705C31.3789 85.956 30.6614 85.5791 30.0572 85.2777C29.4531 84.9762 28.6601 84.637 27.6028 84.2602C26.2812 83.7703 25.1484 83.2804 24.3177 82.7529C23.4492 82.263 22.7317 81.547 22.1276 80.6049C21.5234 79.6628 21.2213 78.457 21.2213 76.9496C21.2213 74.877 21.901 73.219 23.2226 72.0131C24.5442 70.8072 26.319 70.2043 28.5091 70.2043C30.7747 70.2043 32.8515 70.7319 34.1731 71.9754C35.5325 73.219 36.3632 75.4423 36.5143 77.5149H32.1718C32.1718 76.309 31.8697 75.1785 30.9635 74.5756C30.2838 74.1234 29.3776 73.9349 28.4713 73.9349C27.6783 73.9349 27.0742 74.2364 26.5833 74.7263C26.0924 75.2162 25.6015 75.8945 25.6015 76.7612C25.6015 77.4772 26.0169 78.0424 26.3945 78.5323C26.7721 78.9845 27.2252 79.399 27.8294 79.6628C28.3958 79.9643 29.1888 80.3035 30.2083 80.6803C31.6054 81.2079 32.7005 81.7354 33.569 82.2253C34.4375 82.7152 35.1549 83.4312 35.7591 84.3733C36.401 85.3153 36.7031 86.5966 36.7031 88.1416ZM56.263 95V78.4193C56.263 74.161 52.8268 70.7319 48.6354 70.7319C44.444 70.7319 41.0078 74.1987 41.0078 78.4193V95H45.388V87.1618H51.9583V95H56.263ZM45.3502 82.7529V78.5323C45.3502 76.7235 46.8229 75.2162 48.6354 75.2162C50.4479 75.2162 51.9205 76.6858 51.9205 78.5323V82.7529H45.3502ZM17.0299 70.6942V87.2749C17.0299 91.5331 13.5937 94.9623 9.36454 94.9623C5.17314 94.9623 1.73694 91.4954 1.73694 87.2749V70.6942H6.11715V87.1618C6.11715 88.9706 7.5898 90.478 9.4023 90.478C11.2148 90.478 12.6875 88.9706 12.6875 87.1618V70.6942H17.0299Z" fill="white"/>
<path fill-rule="evenodd" clip-rule="evenodd" d="M26.6966 46.313H56.6406V51.0234C38.2135 51.0234 19.7865 51.0234 1.35938 51.0234V31.6164C19.7865 31.6164 38.2135 31.6164 56.6406 31.6164V36.3269H26.6966V38.9647H56.6406V43.7128H26.6966V46.313ZM1.35938 61.0472H56.6406V65.7576H1.35938V61.0472ZM1.35938 53.6989H56.6406V58.4094H1.35938V53.6989Z" fill="white"/>
<path fill-rule="evenodd" clip-rule="evenodd" d="M14.0092 32.2947L16.1615 38.211L22.2032 38.5125L17.4831 42.4693L19.069 48.574L14.0092 45.0694L8.98702 48.574L10.5352 42.4693L5.85291 38.5125L11.8946 38.211L14.0092 32.2947Z" fill="#9B1C1F"/>
</g>
<defs>
<clipPath id="clip0_102_653">
<rect width="58" height="95" fill="white"/>
</clipPath>
</defs>
</svg>
